:SAMPLES-PER-SECOND 30
:FULLY-SPECIFIED
:DEGREES
111
root  -4.22954 38.2841 20.1221 3.52279 -73.2194 -8.73184
RightUpLeg  -14.3978 -12.4629 9.41596
RightLeg  24.4221 -7.12787 -2.69979
RightFoot  -8.09217 0.188535 -8.58414
RightToes  -2.21189e-009 0 -3.6325e-017
Spine  6.84707 -3.23949 10.5687
Spine1  8.52068 -2.40949 1.6235
HEad  -6.7081 -14.217 -0.883763
LeftShoulder1  -0.216886 4.12913 -28.5214
LeftArm  -5.44064 9.94152 -47.0406
LeftForeArm  31.0413 -9.93856 -7.39547
LeftHand  -0.0124359 2.34641 0.0301328
RightShoulder  -0.598497 -5.36339 25.4437
RightArm  6.11286 -4.09544 46.9441
RightForeArm  10.5529 8.64349 4.44042
RightHand  -0.266995 2.72339 -4.04067
LeftUpLeg  -0.853454 11.2389 4.84643
LeftLeg  54.285 -3.65815 -4.94856
LeftFoot  7.21139 2.01579 -12.4984
LeftToes  -4.03379e-008 1.61488e-010 -5.81581e-011
112
root  -5.04889 38.3359 20.402 3.21941 -74.0703 -9.17937
RightUpLeg  -12.2262 -11.2049 8.94533
RightLeg  24.957 -7.74436 -2.84489
RightFoot  -9.4113 0.0805231 -8.51056
RightToes  -2.21189e-009 0 -3.6325e-017
Spine  7.49809 -3.13224 10.8942
Spine1  8.97478 -2.02201 1.77723
HEad  -6.63466 -14.4873 -0.551371
LeftShoulder1  -0.216531 4.12414 -28.7451
LeftArm  -4.72516 9.56882 -46.6514
LeftForeArm  27.6643 -10.9728 -7.27524
LeftHand  -0.0389149 3.19414 1.16204
RightShoulder  -0.551029 -5.22896 25.1691
RightArm  8.00895 -2.41532 48.2901
RightForeArm  10.6125 10.4185 5.04219
RightHand  -0.331978 3.34104 -4.62635
LeftUpLeg  -5.09105 9.04403 5.14211
LeftLeg  60.9709 -2.96343 -5.20879
LeftFoot  7.57785 1.72391 -10.5654
LeftToes  -4.03379e-008 1.61488e-010 -5.81581e-011
113
root  -5.91977 38.4949 20.7159 1.66307 -75.4713 -8.18088
RightUpLeg  -9.5937 -9.89918 7.99985
RightLeg  24.4784 -7.80269 -2.53975
RightFoot  -10.4323 -0.00613909 -8.03954
RightToes  -2.21189e-009 0 -3.6325e-017
Spine  8.28004 -3.08962 11.355
Spine1  8.47187 -1.50709 0.717112
HEad  -6.2109 -13.8844 -0.390651
LeftShoulder1  -0.223087 4.14837 -28.4324
LeftArm  -4.66758 9.6976 -46.3916
LeftForeArm  26.4628 -12.0762 -6.85658
LeftHand  -0.0450082 2.49232 1.28223
RightShoulder  -0.551526 -5.22936 25.1872
RightArm  10.7007 -0.984284 49.8994
RightForeArm  10.7834 12.4847 5.43618
RightHand  -0.413513 3.83557 -5.41531
LeftUpLeg  -8.7635 6.90368 5.10492
LeftLeg  64.6708 -2.25266 -4.54474
LeftFoot  4.72187 1.29702 -9.39338
LeftToes  -4.03379e-008 1.61488e-010 -5.81581e-011
114
root  -6.792 38.6595 21.0355 -0.911714 -77.2321 -5.68532
RightUpLeg  -7.4799 -9.18883 6.81565
RightLeg  23.9898 -6.90298 -1.97364
RightFoot  -11.355 -0.0777961 -7.55292
RightToes  -2.21189e-009 0 -3.6325e-017
Spine  8.17459 -2.80874 11.4348
Spine1  8.49995 -0.960537 -0.141629
HEad  -5.92232 -13.1868 -0.818577
LeftShoulder1  -0.254125 4.23393 -28.6141
LeftArm  -3.90462 9.45039 -45.7787
LeftForeArm  24.5521 -13.3453 -6.53379
LeftHand  -0.0599555 2.47099 1.9101
RightShoulder  -0.530148 -5.1766 24.8998
RightArm  13.4507 0.369685 51.611
RightForeArm  10.5426 15.1662 5.24973
RightHand  -0.273408 2.7361 -4.11042
LeftUpLeg  -12.2168 4.87213 4.62893
LeftLeg  65.3877 -1.36067 -2.6052
LeftFoot  3.58203 0.947712 -7.38608
LeftToes  -4.03379e-008 1.61488e-010 -5.81581e-011
115
root  -7.68973 38.8288 21.3357 -4.47851 -79.3323 -2.37129
RightUpLeg  -4.95759 -8.59403 5.61158
RightLeg  23.0012 -5.51343 -1.24667
RightFoot  -12.1079 -0.131424 -7.42669
RightToes  -2.21189e-009 0 -3.6325e-017
Spine  8.37851 -2.28134 11.5662
Spine1  8.16216 -0.141521 -1.25284
HEad  -5.16663 -13.0615 -1.65503
LeftShoulder1  -0.157485 3.96583 -27.9348
LeftArm  -3.37996 9.64181 -46.0467
LeftForeArm  23.677 -14.6178 -6.10738
LeftHand  -0.0578202 2.81027 1.97322
RightShoulder  -0.52878 -5.17702 24.8082
RightArm  16.7442 0.995959 52.9415
RightForeArm  6.65772 18.1179 5.00486
RightHand  -0.444668 4.84709 -5.3458
LeftUpLeg  -14.6932 3.08286 4.28251
LeftLeg  63.4913 -0.735836 -1.0027
LeftFoot  2.24729 0.502977 -4.33427
LeftToes  -4.03379e-008 1.61488e-010 -5.81581e-011
116
root  -8.58665 38.9923 21.6134 -9.6564 -81.3196 2.57092
RightUpLeg  -2.26125 -8.06249 4.41134
RightLeg  21.5108 -3.99286 -0.685362
RightFoot  -12.8164 -0.178748 -7.17347
RightToes  -2.21189e-009 0 -3.6325e-017
Spine  8.63711 -1.84309 11.4628
Spine1  7.84445 0.487282 -2.3664
HEad  -5.3383 -12.0587 -1.79617
LeftShoulder1  -0.146141 3.93637 -27.6097
LeftArm  -2.52348 9.74877 -46.0714
LeftForeArm  22.386 -16.0485 -5.64154
LeftHand  -0.0627232 2.49232 2.03305
RightShoulder  -0.516477 -5.13038 24.9483
RightArm  20.0553 1.76043 53.6646
RightForeArm  4.71127 21.4831 4.70511
RightHand  -0.48673 4.86638 -5.80287
LeftUpLeg  -16.3407 1.17639 3.97979
LeftLeg  59.1836 -0.385811 -0.150552
LeftFoot  0.24716 0.317974 -3.16396
LeftToes  -4.03379e-008 1.61488e-010 -5.81581e-011
117
root  -9.46607 39.1115 21.8884 -15.5939 -83.2584 8.77106
RightUpLeg  -0.361983 -7.87614 3.38512
RightLeg  20.3315 -2.03056 -0.118555
RightFoot  -13.5547 -0.225876 -6.92947
RightToes  -2.21189e-009 0 -3.6325e-017
Spine  8.59745 -1.43318 11.2536
Spine1  7.46081 0.848632 -2.8793
HEad  -5.76257 -10.5137 -1.838
LeftShoulder1  -0.188051 4.05308 -28.0507
LeftArm  -1.50792 9.53956 -45.4989
LeftForeArm  21.2362 -17.2067 -5.29748
LeftHand  -0.0672472 2.00256 1.9479
RightShoulder  -0.474068 -5.00459 24.7248
RightArm  22.0325 2.63911 54.3646
RightForeArm  4.97159 24.391 4.92423
RightHand  -0.493044 5.1969 -5.70083
LeftUpLeg  -17.8427 -0.115401 4.01828
LeftLeg  52.7934 -0.57971 -0.355771
LeftFoot  -0.894736 0.251581 -2.69655
LeftToes  -4.03379e-008 1.61488e-010 -5.81581e-011
118
root  -10.3715 39.2082 22.1719 -24.7224 -85.0308 18.0559
RightUpLeg  1.76791 -8.04496 2.25465
RightLeg  18.9701 0.243742 0.488316
RightFoot  -14.2206 -0.270801 -6.95715
RightToes  -2.21189e-009 0 -3.6325e-017
Spine  8.46658 -1.11671 10.8592
Spine1  7.27933 1.03031 -3.13435
HEad  -6.41499 -9.08467 -1.99341
LeftShoulder1  -0.256397 4.2474 -28.3283
LeftArm  -0.609367 9.63475 -45.3503
LeftForeArm  20.2081 -18.3152 -4.96869
LeftHand  -0.0907323 1.66773 2.65838
RightShoulder  -0.41718 -4.84374 24.2184
RightArm  23.1108 3.31301 55.2556
RightForeArm  5.98364 26.5852 5.40009
RightHand  -0.543042 5.3205 -6.18192
LeftUpLeg  -18.1481 -1.35138 4.07225
LeftLeg  44.1291 -1.27611 -0.93725
LeftFoot  -1.35044 0.232698 -2.5729
LeftToes  -4.03379e-008 1.61488e-010 -5.81581e-011
